# xmcd
#
# Track frame offsets:
#	150
#	16441
#	39004
#	67735
#	95294
#	114246
#	155766
#	179330
#	204219
#
# Disc length: 3001 seconds
# Revision: 0
# Processed by: cddbd v1.5.2PL0 Copyright (c) Steve Scherf et al.
# Submitted via: dBpowerAMP V12.0
#
DISCID=610bb709
DTITLE=Bethy Krieger - Pampa y Piano
DYEAR=2010
DGENRE=Brazil
TTITLE0=Partido Novo
TTITLE1=Vip
TTITLE2=Chacarera pro Raul
TTITLE3=Lagoa do Peixe
TTITLE4=Falta um samba
TTITLE5=Nova Bossa
TTITLE6=Sambaião
TTITLE7=Balada Choro
TTITLE8=Tempo Frio
EXTD=
EXTT0=
EXTT1=
EXTT2=
EXTT3=
EXTT4=
EXTT5=
EXTT6=
EXTT7=
EXTT8=
PLAYORDER=
